<svg id="a6b96cfd-f3f5-4a02-be52-ccef93e51be0" data-name="Layer 1" xmlns="http://www.w3.org/2000/svg" viewBox="0 0 38 38">
  <defs>
    <style>
      .ba48876c-b8b2-4a6e-863d-88fbf9f28b85 {
        fill: #fff;
      }

      .f2116772-7812-410d-992b-b9441f648333 {
        fill: #e00;
      }
    </style>
  </defs>
  <path class="ba48876c-b8b2-4a6e-863d-88fbf9f28b85" d="M28,1H10a9,9,0,0,0-9,9V28a9,9,0,0,0,9,9H28a9,9,0,0,0,9-9V10a9,9,0,0,0-9-9Z"/>
  <g>
    <path d="M28,2.25A7.7587,7.7587,0,0,1,35.75,10V28A7.7587,7.7587,0,0,1,28,35.75H10A7.7587,7.7587,0,0,1,2.25,28V10A7.7587,7.7587,0,0,1,10,2.25H28M28,1H10a9,9,0,0,0-9,9V28a9,9,0,0,0,9,9H28a9,9,0,0,0,9-9V10a9,9,0,0,0-9-9Z"/>
    <path class="f2116772-7812-410d-992b-b9441f648333" d="M26,27.625H12A.6253.6253,0,0,1,11.375,27V13A.6253.6253,0,0,1,12,12.375h4.375a.625.625,0,0,1,0,1.25h-3.75v12.75h12.75V13.625h-3.75a.625.625,0,0,1,0-1.25H26a.6253.6253,0,0,1,.625.625V27A.6253.6253,0,0,1,26,27.625Z"/>
    <path d="M19,14.625A.6253.6253,0,0,1,18.375,14V9a.625.625,0,0,1,1.25,0v5A.6253.6253,0,0,1,19,14.625Z"/>
    <g>
      <path d="M18.5391,22.7578a.6323.6323,0,0,1-.1309-.0137.6251.6251,0,0,1-.4814-.7412l.9062-4.2656a.625.625,0,0,1,1.2227.26l-.9063,4.2656A.6253.6253,0,0,1,18.5391,22.7578Z"/>
      <path d="M21.5059,22.4893a.625.625,0,0,1-.4424-1.0669l1.4277-1.4273-1.4267-1.4267a.6246.6246,0,1,1,.8828-.8838l1.8691,1.8686a.6248.6248,0,0,1,.001.8838l-1.8692,1.8692A.6237.6237,0,0,1,21.5059,22.4893Z"/>
      <path d="M16.4941,22.4893a.6237.6237,0,0,1-.4423-.1831L14.1826,20.437a.6248.6248,0,0,1,.001-.8838l1.8691-1.8686a.6246.6246,0,1,1,.8828.8838l-1.4267,1.4267,1.4277,1.4273a.625.625,0,0,1-.4424,1.0669Z"/>
    </g>
  </g>
</svg>
